<svg width="20" height="20" viewBox="0 0 20 20" fill="none" xmlns="http://www.w3.org/2000/svg">
<path d="M13.7762 17.3204C14.6134 17.424 15.4546 17.5703 16.2999 17.7612C16.8485 17.3224 17.33 16.8247 17.771 16.2864C17.58 15.4453 17.4337 14.6002 17.33 13.7673C15.924 14.9517 14.7251 16.1929 13.7762 17.3204Z" fill="#D6AC50"/>
<path d="M12.5694 2.29965C11.8765 1.40782 11.3685 0.631793 11.0861 0.0731336C10.7244 0.0325038 10.3607 0 10.0173 0C9.68003 0 9.34476 0.0264094 8.99731 0.0609447C8.723 0.619604 8.20893 1.3997 7.51808 2.29965C9.35492 2.45607 11.0922 2.4256 12.5694 2.29965Z" fill="#D6AC50"/>
<path d="M2.78573 13.7715C2.64553 14.8583 2.46266 15.7461 2.27573 16.3535C2.72478 16.8979 3.21853 17.3936 3.76714 17.8284C4.37874 17.6394 5.25653 17.4586 6.34156 17.3246C5.3886 16.195 4.18775 14.9518 2.78573 13.7715Z" fill="#D6AC50"/>
<path d="M2.28589 7.47583C1.58082 8.03246 0.841207 8.5708 0.0507975 9.06039C0.0243828 9.36511 0 9.67796 0 9.9644C0 10.2874 0.0243828 10.6185 0.0609571 10.9558C0.849335 11.4454 1.59098 11.9857 2.30824 12.5403C2.43219 11.0634 2.45454 9.31636 2.28589 7.47583Z" fill="#D6AC50"/>
<path d="M4.33398 18.2428C5.47998 19.0168 6.77633 19.549 8.12551 19.7867C7.8065 19.2443 7.33714 18.576 6.74179 17.8345C5.77867 17.9421 4.95575 18.0864 4.33398 18.2428Z" fill="#D6AC50"/>
<path d="M2.09273 14.3179C2.14353 13.9949 2.1862 13.6496 2.22684 13.292C1.57256 12.7639 0.885781 12.26 0.154297 11.7908C0.408285 13.1986 0.973153 14.5475 1.80826 15.7217C1.85906 15.5429 1.89564 15.3499 1.94643 15.1407C2.00536 14.8644 2.04803 14.5902 2.09273 14.3179Z" fill="#D6AC50"/>
<path d="M11.8887 19.8253C13.2094 19.5713 14.4712 19.0391 15.5888 18.2813C14.8045 18.1168 14.0201 17.9969 13.248 17.9055C12.671 18.6369 12.2097 19.291 11.8887 19.8253Z" fill="#D6AC50"/>
<path d="M7.58511 17.8182C8.22923 18.6613 8.71282 19.3906 9.00338 19.937C9.34677 19.9756 9.6861 20 10.0193 20C10.3871 20 10.7691 19.9695 11.1572 19.9228C11.4417 19.3784 11.9212 18.6572 12.5612 17.8304C10.7488 17.676 9.03589 17.7024 7.58511 17.8182Z" fill="#D6AC50"/>
<path d="M12.9961 2.93335C12.0959 3.0207 11.0922 3.08165 10.0214 3.08165C9.08465 3.08165 8.09512 3.03289 7.0873 2.93741C6.02867 4.23147 4.60634 5.70024 2.94221 7.06743C3.16369 9.24722 3.12509 11.3132 2.95441 13.0075C4.64088 14.3849 6.07541 15.8658 7.14622 17.1741C8.81644 17.0095 10.8483 16.9709 12.9839 17.1842C14.0506 15.878 15.4851 14.3991 17.1655 13.0197C16.9481 10.8399 16.9908 8.76576 17.1594 7.06743C15.4872 5.70024 14.0648 4.2335 12.9961 2.93335ZM10.0173 16.6296C6.35581 16.6296 3.37704 13.6515 3.37704 9.99277C3.37704 6.33609 6.35581 3.35996 10.0173 3.35996C13.6707 3.35996 16.6474 6.33609 16.6474 9.99277C16.6474 13.6515 13.6707 16.6296 10.0173 16.6296Z" fill="#D6AC50"/>
<path d="M1.80637 4.27612C0.963131 5.4747 0.388103 6.85205 0.142242 8.28628C0.199136 8.24769 0.258061 8.20909 0.314954 8.16846C0.733526 7.90639 1.13178 7.61589 1.52597 7.32742C1.76573 7.15271 1.99127 6.96378 2.22494 6.77689C2.12741 5.95413 1.98721 5.1131 1.80637 4.27612Z" fill="#D6AC50"/>
<path d="M17.2936 6.30176C17.4318 5.221 17.6147 4.34543 17.8057 3.75021C17.3627 3.19967 16.8649 2.69383 16.3163 2.24487C15.727 2.4399 14.8452 2.62882 13.75 2.76697C14.7009 3.89241 15.8937 5.12349 17.2936 6.30176Z" fill="#D6AC50"/>
<path d="M18.2485 4.34546C18.2059 4.51204 18.1591 4.69894 18.1205 4.89802C18.0535 5.19462 17.9966 5.52169 17.9458 5.8833C17.9011 6.15145 17.8665 6.43586 17.832 6.73449C18.0149 6.88482 18.1977 7.03109 18.3887 7.17532C18.8459 7.50646 19.3133 7.83556 19.8172 8.15044C19.5672 6.79543 19.0288 5.48716 18.2485 4.34546Z" fill="#D6AC50"/>
<path d="M17.9254 13.8183C18.0189 14.4257 18.1083 15.0372 18.2546 15.6426C19.0247 14.5253 19.5591 13.2414 19.8171 11.9148C19.1344 12.3617 18.4842 12.8371 17.8624 13.3307C17.8807 13.4953 17.9071 13.6558 17.9254 13.8183Z" fill="#D6AC50"/>
<path d="M17.7974 12.5546C18.472 12.0265 19.1771 11.5165 19.9269 11.0493C19.9695 10.6816 20 10.3159 20 9.96449C20 9.65164 19.9695 9.3266 19.9309 8.9975C19.1751 8.53026 18.47 8.01426 17.7832 7.47998C17.6613 8.96094 17.6328 10.71 17.7974 12.5546Z" fill="#D6AC50"/>
<path d="M11.8602 0.176758C12.2565 0.80652 12.671 1.40378 13.0916 1.97056C13.1627 2.05995 13.2257 2.14324 13.2968 2.23669C13.3496 2.23059 13.3964 2.22856 13.4472 2.22247C14.3371 2.1148 15.093 1.97666 15.668 1.82226C15.6944 1.81617 15.7127 1.81414 15.7371 1.80804C14.5789 0.991385 13.244 0.430694 11.8602 0.176758Z" fill="#D6AC50"/>
<path d="M2.79174 6.28345C4.18969 5.10315 5.37226 3.87207 6.31303 2.74866C5.42509 2.63896 4.52495 2.49066 3.62888 2.28345C3.14936 2.67959 2.69827 3.12042 2.29799 3.60595L2.30815 3.60391C2.52353 4.49777 2.68202 5.39366 2.79174 6.28345Z" fill="#D6AC50"/>
<path d="M4.35631 1.76323C5.17516 1.95825 6.00621 2.10452 6.8271 2.21219C7.46918 1.40975 7.95074 0.70279 8.26772 0.148193C6.8718 0.398067 5.52668 0.9486 4.35631 1.76323Z" fill="#D6AC50"/>
</svg>
